HIERARCHY
ROOT hip
{
	OFFSET 0.000000 0.000000 0.000000 
	CHANNELS 6 Xposition Yposition Zposition Xrotation Zrotation Yrotation
	JOINT abdomen
	{
		OFFSET 0.000000 3.402643 0.000000 
		CHANNELS 3 Xrotation Zrotation Yrotation
		JOINT chest
		{
			OFFSET 0.000000 8.438565 -0.680529 
			CHANNELS 3 Xrotation Zrotation Yrotation
			JOINT neck
			{
				OFFSET 0.000000 10.207942 -0.272212 
				CHANNELS 3 Xrotation Zrotation Yrotation
				JOINT head
				{
					OFFSET 0.000000 3.130431 0.000000 
					CHANNELS 3 Xrotation Zrotation Yrotation
					End Site
					{
						OFFSET 0.000000 3.130435 0.000000 
					}
				}
			}
			JOINT lCollar
			{
				OFFSET 3.470700 6.669187 -0.816635 
				CHANNELS 3 Yrotation Zrotation Xrotation
				JOINT lShldr
				{
					OFFSET 3.198488 0.000000 0.000000 
					CHANNELS 3 Zrotation Yrotation Xrotation
					JOINT lForeArm
					{
						OFFSET 10.139888 0.000000 0.000000 
						CHANNELS 3 Yrotation Zrotation Xrotation
						JOINT lHand
						{
							OFFSET 8.370511 0.000000 0.000000 
							CHANNELS 3 Zrotation Yrotation Xrotation
							End Site
							{
								OFFSET 4.083176 0.000000 0.000000 
							}
						}
					}
				}
			}
			JOINT rCollar
			{
				OFFSET -3.470700 6.669187 -0.816635 
				CHANNELS 3 Yrotation Zrotation Xrotation
				JOINT rShldr
				{
					OFFSET -3.198488 0.000000 0.000000 
					CHANNELS 3 Zrotation Yrotation Xrotation
					JOINT rForeArm
					{
						OFFSET -10.139888 0.000000 0.000000 
						CHANNELS 3 Yrotation Zrotation Xrotation
						JOINT rHand
						{
							OFFSET -8.370511 0.000000 0.000000 
							CHANNELS 3 Zrotation Yrotation Xrotation
							End Site
							{
								OFFSET -4.083176 0.000000 0.000000 
							}
						}
					}
				}
			}
		}
	}
	JOINT lThigh
	{
		OFFSET 5.308129 -1.633274 1.361059 
		CHANNELS 3 Xrotation Zrotation Yrotation
		JOINT lShin
		{
			OFFSET -2.041588 -20.007561 0.000000 
			CHANNELS 3 Xrotation Zrotation Yrotation
			JOINT lFoot
			{
				OFFSET 0.000000 -19.190928 -1.224953 
				CHANNELS 3 Xrotation Yrotation Zrotation
				End Site
				{
					OFFSET 0.000000 -2.449906 4.627600 
				}
			}
		}
	}
	JOINT rThigh
	{
		OFFSET -5.308129 -1.633274 1.361059 
		CHANNELS 3 Xrotation Zrotation Yrotation
		JOINT rShin
		{
			OFFSET 2.041588 -20.007561 0.000000 
			CHANNELS 3 Xrotation Zrotation Yrotation
			JOINT rFoot
			{
				OFFSET 0.000000 -19.190928 -1.224953 
				CHANNELS 3 Xrotation Yrotation Zrotation
				End Site
				{
					OFFSET 0.000000 -2.449906 4.627600 
				}
			}
		}
	}
}
MOTION
Frames: 11
Frame Time: 0.016667
-1.676676 50.753414 5.310749 -3.701172 -0.361328 43.603519 46.435547 -8.808595 12.119141 -15.869142 -1.953125 -0.703125 51.064453 8.115234 2.472081 -66.455078 -3.320313 25.878340 2.500000 30.000000 3.647461 -105.585938 19.228516 9.729779 -106.611328 0.546875 -3.154297 57.832031 11.083984 5.451097 -13.212891 -30.000000 -3.291015 88.798828 -22.167971 26.835936 92.890625 0.039063 -3.056647 -51.357422 -41.201172 37.151768 -14.733246 11.980023 -0.945175 35.880913 -3.989701 -3.109047 7.861459 7.370386 14.265865 -3.945055 -1.357285 -17.633015 43.455776 3.632654 3.550121 23.386810 -1.707395 -4.339342 
-3.361443 51.667274 10.637445 -5.283204 -0.537109 38.525433 46.992188 -6.406250 9.580079 -15.859375 -3.710938 -1.172507 51.064453 8.115234 2.472081 -64.726563 -1.953125 18.378576 4.873047 29.999998 2.275391 -106.689453 18.720703 11.132813 -109.589844 0.839844 -2.988281 58.808598 10.527344 3.038895 -11.523438 -30.000000 -2.226563 88.515625 -33.916016 24.072268 96.230469 -0.068359 -3.115235 -48.085934 -41.894531 34.231762 -16.380016 19.446459 -2.622683 41.895008 -3.638557 -3.487463 26.950094 3.692809 16.267221 -4.889063 -2.593151 -19.564201 38.357754 3.954879 3.062524 20.980057 -4.187075 -3.617655 
-5.030006 51.958759 15.932213 -7.050781 -0.878906 33.320164 47.529297 -4.257813 7.275390 -15.839844 -5.292969 -1.806641 51.064453 8.115234 2.472081 -62.988285 -0.390625 10.732422 9.267577 30.000000 -0.439453 -108.388672 20.449217 9.462890 -109.404297 1.005859 -2.802906 58.369144 11.083985 2.296801 -8.750000 -30.000000 -0.512694 90.058594 -38.886719 21.962893 101.845703 -0.468750 -3.037109 -42.167965 -41.923828 28.128242 -9.089889 25.972595 -1.201965 38.684013 -3.566120 -3.503944 34.017838 1.775093 17.604328 -5.623659 -3.855253 -20.961353 33.430370 4.344985 2.267768 17.986053 -6.421559 -2.807558 
-6.658117 51.572739 21.147135 -8.632813 -1.396484 28.505959 47.880859 -2.773438 5.898438 -15.654297 -6.679688 -2.618324 51.064453 8.115234 2.472081 -61.787106 1.416016 2.978757 11.943360 30.000000 -2.446289 -110.664063 25.625000 1.474707 -96.250000 -0.048828 -3.193359 54.785160 12.656250 4.279484 -6.699219 -30.000000 0.878906 95.351563 -32.988281 21.205622 106.230469 -0.673828 -3.027229 -38.095699 -40.126953 21.556206 2.148212 30.991154 1.633010 28.873672 -4.519694 -2.648771 44.473324 0.891311 20.009945 -5.633694 -4.870585 -22.874462 29.379189 4.550183 1.969312 13.015504 -8.768774 -2.263128 
-8.236007 50.674648 26.295868 -10.029297 -1.914062 24.228516 47.880863 -2.714844 5.732005 -15.468749 -7.207031 -3.741460 51.064453 8.115234 2.472081 -61.103516 3.437500 -5.468164 12.871094 29.999998 -3.457031 -114.003906 31.191404 -9.628905 -76.757813 -0.947266 -2.870932 48.857422 15.927734 7.131588 -5.302734 -30.000000 1.645509 101.591797 -21.435549 22.392580 109.570313 -0.849609 -3.007820 -35.380859 -37.119141 15.902311 -1.425106 28.102724 0.128116 31.143299 -4.253209 -2.951135 48.046192 3.882468 20.035145 -4.657176 -4.859702 -25.013491 26.577154 4.598643 2.411199 4.892407 -11.448377 -2.272930 
-9.781633 51.746063 31.414053 -11.103516 -2.597656 20.878908 47.705078 -5.253907 8.242187 -15.117188 -6.503906 -5.654298 51.064453 8.115234 2.472081 -62.177731 5.927735 -16.424770 13.388673 30.000000 -4.096680 -115.332031 34.736324 -15.302735 -63.574219 -1.035156 -2.480469 45.488281 19.013674 9.267578 -4.960937 -30.000000 1.909181 105.136719 -14.326172 23.591335 110.966797 -1.113281 -2.958805 -35.898441 -35.107422 14.658204 -7.564694 21.358801 -1.956897 33.950169 -4.014923 -3.283737 39.976368 2.475123 15.733020 2.651987 -0.378558 -26.896132 25.708040 4.751053 2.381804 -3.908101 -10.396211 -4.934512 
-11.312309 51.541237 36.486183 -11.982422 -2.939453 19.062502 46.953125 -9.833984 13.242188 -14.785155 -4.746094 -8.184402 51.064453 8.115234 2.472081 -64.707031 8.134767 -28.466797 13.613280 30.000000 -4.140625 -114.150391 37.646484 -14.242082 -63.222656 -1.191406 -2.353312 45.830078 20.224609 9.638672 -5.722656 -30.000000 1.469728 103.701172 -12.968751 24.111330 109.570313 -0.888672 -3.291016 -40.673824 -35.019531 19.271742 -14.260046 12.826224 -3.468695 36.932377 -3.790759 -3.071919 26.025270 0.800367 10.209446 8.083952 3.201714 -28.204657 27.171286 4.725700 2.497822 -6.716122 -9.526499 -5.617968 
-12.845332 50.910988 41.496864 -12.675781 -3.095703 18.602989 45.800781 -14.423828 18.203127 -14.453126 -2.998047 -10.507904 51.064453 8.115234 2.472081 -66.953125 9.580079 -37.099606 13.154296 30.000000 -3.613281 -110.761719 39.794922 -9.287109 -69.013672 -0.869141 -2.646484 48.291019 20.888672 9.798403 -7.148438 -30.000000 0.449219 99.316406 -13.535157 26.394201 106.396484 -0.908203 -2.958830 -47.519531 -35.087891 27.363281 -19.955072 5.672363 -3.810152 40.145798 -4.074537 -3.480342 11.437585 1.267084 5.632092 6.018444 1.939776 -29.302345 38.230034 4.104106 3.285090 13.509594 -5.275693 -1.057564 
-14.397914 51.785439 46.430702 -13.222657 -3.251953 18.505859 45.048828 -16.562500 20.478518 -14.462890 -2.119141 -11.650752 51.064453 8.115234 2.472081 -67.646477 10.605469 -39.304840 12.382813 30.000000 -2.954102 -106.484375 40.615231 -3.779296 -75.000000 -1.005859 -2.831860 50.527344 20.351561 10.140114 -8.720703 -30.000000 -0.419922 94.052734 -13.730469 29.694948 103.417969 -0.605469 -2.968652 -54.687500 -34.599609 35.166019 -22.812302 1.786543 -3.212645 43.458366 -3.842955 -3.707385 3.241049 3.551115 3.588714 10.933508 5.044737 -28.750141 31.378641 4.461024 2.606622 36.120510 -0.978970 2.277464 
-15.978845 53.471817 51.316647 -13.749999 -3.427734 18.222073 45.820309 -15.537109 19.062500 -14.628906 -2.822266 -11.533683 51.064453 8.115234 2.472081 -67.070313 11.591798 -35.976563 11.318358 30.000000 -2.314453 -98.837891 38.642578 5.478516 -80.439453 -0.478516 -2.773356 52.773438 17.519533 11.816406 -9.843750 -30.000000 -1.118163 90.029297 -13.779296 32.898064 102.187500 -0.556641 -2.958989 -57.451172 -34.541016 39.179688 -22.625313 2.245622 -2.248294 47.492577 -3.577210 -3.920460 3.492848 6.847962 2.342849 7.338133 2.857165 -27.574450 35.254765 4.270926 3.094495 39.789661 -0.406587 3.052222 
-17.578293 54.550068 56.185341 -14.628906 -3.925782 16.649723 47.353512 -12.792968 15.683595 -15.146485 -4.228516 -10.566407 51.064453 8.115234 2.472081 -65.976563 12.412109 -29.831886 10.048828 30.000000 -1.689453 -90.810547 34.189453 15.361328 -85.878906 -0.273438 -2.880813 55.458984 13.369141 13.088197 -9.941407 -30.000000 -1.259766 90.380859 -18.779297 32.282017 105.175781 -0.673857 -2.997910 -52.695313 -35.634762 35.277515 -20.089018 5.505112 -0.971812 52.601479 -3.345531 -4.292252 7.680788 11.081448 0.979284 -0.458576 -1.205507 -25.014029 41.348164 3.778564 3.426380 30.530228 -3.768582 2.316182 
